# AST/ASF file generated using VICON BodyLanguage
# -----------------------------------------------
:version 1.10
:name VICON
:units
  mass 1.0
  length 0.45
  angle deg
:documentation
   .ast/.asf automatically generated from VICON data using
   VICON BodyBuilder and BodyLanguage model FoxedUp or BRILLIANT.MOD
:root
   order TX TY TZ RX RY RZ
   axis XYZ
   position 0 0 0  
   orientation 0 0 0 
:bonedata
  begin
     id 1 
     name lhipjoint
     direction 0.570549 -0.739093 0.358072 
     length 2.41801 
     axis 0 0 0  XYZ
  end
  begin
     id 2 
     name lfemur
     direction 0.34202 -0.939693 0  
     length 7.44434  
     axis 0 0 20  XYZ
    dof rx ry rz
    limits (-160.0 20.0)
           (-70.0 70.0)
           (-60.0 70.0)
  end
  begin
     id 3 
     name ltibia
     direction 0.34202 -0.939693 0   
     length 7.60047   
     axis 0 0 20   XYZ
    dof rx
    limits (-10.0 170.0)
  end
  begin
     id 4 
     name lfoot
     direction 0.0909041 -0.249757 0.964032   
     length 2.03437   
     axis -90 7.62852e-016 20   XYZ
    dof rx rz
    limits (-45.0 90.0)
           (-70.0 20.0)
  end
  begin
     id 5 
     name ltoes
     direction 1.53547e-011 -4.2174e-011 1   
     length 1.02054   
     axis -90 7.62852e-016 20   XYZ
    dof rx
    limits (-90.0 20.0)
  end
  begin
     id 6 
     name rhipjoint
     direction -0.558096 -0.746754 0.361784   
     length 2.3932  
     axis 0 0 0  XYZ 
  end
  begin
     id 7 
     name rfemur
     direction -0.34202 -0.939693 0   
     length 7.3886   
     axis 0 0 -20   XYZ
    dof rx ry rz
    limits (-160.0 20.0)
           (-70.0 70.0)
           (-70.0 60.0)
  end
  begin
     id 8 
     name rtibia
     direction -0.34202 -0.939693 0   
     length 7.4839   
     axis 0 0 -20   XYZ
    dof rx
    limits (-10.0 170.0)
 end
 begin
     id 9 
     name rfoot
     direction -0.114619 -0.314914 0.942174   
     length 2.25127  
     axis -90 -7.62852e-016 -20   XYZ
    dof rx rz
    limits (-45.0 90.0)
           (-20.0 70.0)
  end
  begin
     id 10 
     name rtoes
     direction -1.53518e-011 -4.21881e-011 1   
     length 1.11821   
     axis -90 -7.62852e-016 -20   XYZ
    dof rx
    limits (-90.0 20.0)
  end
  begin
     id 11 
     name lowerback
     direction -0.00902269 0.996426 -0.0839821   
     length 2.25052   
     axis 0 0 0   XYZ
    dof rx ry rz
    limits (-20.0 45.0)
           (-30.0 30.0)
           (-30.0 30.0)
  end
  begin
     id 12 
     name upperback
     direction 0.0370973 0.999169 -0.0168941   
     length 2.24876   
     axis 0 0 0   XYZ
    dof rx ry rz
    limits (-20.0 45.0)
           (-30.0 30.0)
           (-30.0 30.0)
  end
  begin
     id 13 
     name thorax
     direction 0.0402726 0.998931 0.0227027   
     length 2.26408   
     axis 0 0 0   XYZ
    dof rx ry rz
    limits (-20.0 45.0)
           (-30.0 30.0)
           (-30.0 30.0)
  end
  begin
     id 14 
     name lowerneck
     direction -0.0733697 0.98508 0.155675   
     length 1.58204   
     axis 0 0 0   XYZ
    dof rx ry rz
    limits (-20.0 45.0)
           (-30.0 30.0)
           (-30.0 30.0)
  end
  begin
     id 15 
     name upperneck
     direction 0.0426554 0.993501 -0.105526   
     length 1.61222   
     axis 0 0 0   XYZ
    dof rx ry rz
    limits (-20.0 45.0)
           (-30.0 30.0)
           (-30.0 30.0)
  end
  begin
     id 16
     name head
     direction 0.020792 0.998384 -0.0528868  
     length 1.61527  
     axis 0 0 0   XYZ
    dof rx ry rz
    limits (-20.0 45.0)
           (-30.0 30.0)
           (-30.0 30.0)
  end
  begin
     id 17 
     name lclavicle
     direction 0.967109 0.155462 -0.201325  
     length 3.59357  
     axis 0 0 0   XYZ
    dof ry rz
    limits (-20.0 10.0)
           (0.0 20.0)
  end
  begin
     id 18 
     name lhumerus
     direction 1 -4.48968e-011 2.38195e-027   
     length 5.38154   
     axis 180 -30 -90   XYZ
    dof rx ry rz
    limits (-60.0 90.0)
           (-90.0 90.0)
           (-90.0 90.0)
  end
  begin
     id 19
     name lradius
     direction 1 -4.48961e-011 4.85371e-027   
     length 3.33312   
     axis 180 -30 -90   XYZ
    dof rx
    limits (-10.0 170.0)
  end
  begin
     id 20
     name lwrist
     direction 1 -4.48961e-011 4.76515e-027   
     length 1.66656   
     axis -3.27502e-015 90 90   XYZ
    dof ry
    limits (-180.0 0.0)
 end
  begin
     id 21 
     name lhand
     direction 1 -4.48951e-011 9.53074e-027   
     length 0.710789   
     axis -6.08098e-015 90 90   XYZ
    dof rx rz
    limits (-90.0 90.0)
           (-45.0 45.0)
  end
  begin
     id 22 
     name lfingers
     direction 1 -4.48953e-011 1.90613e-026   
     length 0.573057   
     axis -1.21619e-014 90 90   XYZ
    dof rx
    limits (0.0 90.0)
  end
  begin
     id 23
     name lthumb
     direction 0.707107 -6.34973e-011 0.707107   
     length 0.822798   
     axis -90 45 -9.86923e-015   XYZ
    dof rx rz
    limits (-45.0 45.0)
           (-45.0 45.0)
  end
  begin
     id 24 
     name rclavicle
     direction -0.9585 0.265289 -0.104398   
     length 3.42039  
     axis 0 0 0   XYZ 
    dof ry rz
    limits (-10.0 20.0)
           (-20.0 0.0)
  end
  begin
     id 25 
     name rhumerus
     direction -1 -4.48977e-011 2.21478e-027  
     length 5.16954   
     axis 180 30 90   XYZ
    dof rx ry rz
    limits (-90.0 60.0)
           (-90.0 90.0)
           (-90.0 90.0)
  end
  begin
     id 26 
     name rradius
     direction -1 -4.48967e-011 5.63677e-027   
     length 3.38287   
     axis 180 30 90   XYZ
    dof rx
    limits (-10.0 170.0)
  end
  begin
     id 27 
     name rwrist
     direction -1 -4.48967e-011 4.76501e-027   
     length 1.69144   
     axis -3.27502e-015 -90 -90   XYZ
    dof ry
    limits (-180.0 0.0)
  end
  begin
     id 28
     name rhand
     direction -1 -4.48902e-011 9.53292e-027   
     length 0.817967   
     axis -6.08098e-015 -90 -90   XYZ
    dof rx rz
    limits (-90.0 90.0)
           (-45.0 45.0)
  end
  begin
     id 29
     name rfingers
     direction -1 -4.49012e-011 1.90561e-026   
     length 0.659466   
     axis -1.21619e-014 -90 -90   XYZ
    dof rx
    limits (0.0 90.0)
  end
  begin
     id 30
     name rthumb
     direction -0.707107 -6.34944e-011 0.707107   
     length 0.946865   
     axis -90 -45 9.86923e-015   XYZ
    dof rx rz
    limits (-45.0 45.0)
           (-45.0 45.0)
  end
:hierarchy
  begin
    root lhipjoint rhipjoint lowerback
    lhipjoint lfemur
    lfemur ltibia
    ltibia lfoot
    lfoot ltoes
    rhipjoint rfemur
    rfemur rtibia
    rtibia rfoot
    rfoot rtoes
    lowerback upperback
    upperback thorax
    thorax lowerneck lclavicle rclavicle
    lowerneck upperneck
    upperneck head
    lclavicle lhumerus
    lhumerus lradius
    lradius lwrist
    lwrist lhand lthumb
    lhand lfingers
    rclavicle rhumerus
    rhumerus rradius
    rradius rwrist
    rwrist rhand rthumb
    rhand rfingers
  end

#!OML:ASF F:\twosubjects\two\wednesday\Session 1\Justin1.ASF
:FULLY-SPECIFIED
:DEGREES
603
root 9.19476 17.6866 -14.8885 -0.312555 -0.643174 -2.08207
lowerback 3.67175 0.615318 0.394979
upperback -1.85899 0.978721 3.5985
thorax -4.03842 0.528644 3.43282
lowerneck -22.0019 -3.62298 -11.0101
upperneck 17.8555 -2.86434 6.40338
head 9.522 -1.36414 3.6299
rclavicle -1.32192e-014 -1.35174e-014
rhumerus -22.0492 23.5113 -97.3651
rradius 112.759
rwrist -23.1757
rhand -35.6382 41.6409
rfingers 7.12502
rthumb -8.76063 11.8427
lclavicle -1.32192e-014 -1.35174e-014
lhumerus -11.399 -24.5169 96.9266
lradius 104.168
lwrist 11.5653
lhand -28.0639 43.0418
lfingers 7.12502
lthumb -1.44763 73.0166
rfemur -1.04116 0.32523 17.737
rtibia 12.2171
rfoot -7.73198 -11.4831
rtoes -5.74933
lfemur -5.49487 -0.659902 -12.9722
ltibia 19.8068
lfoot -12.1822 2.25623
ltoes -16.0416
604
root 9.21065 17.6809 -14.8625 -0.710531 -0.62219 -0.988957
lowerback 3.64495 0.571144 -0.561355
upperback -1.55776 0.845593 3.20548
thorax -3.71022 0.475983 3.57233
lowerneck -22.3735 -3.58076 -10.727
upperneck 18.103 -2.82832 6.25289
head 9.66427 -1.34351 3.53926
rclavicle 1.46604e-015 -2.38542e-014
rhumerus -22.0786 25.0789 -98.5487
rradius 112.434
rwrist -22.4411
rhand -35.6573 41.7066
rfingers 7.12502
rthumb -8.77909 11.9092
lclavicle 1.46604e-015 -2.38542e-014
lhumerus -11.3825 -26.14 97.0985
lradius 104.142
lwrist 11.5141
lhand -28.0566 43.3263
lfingers 7.12502
lthumb -1.44055 73.3012
rfemur -0.62529 -0.285681 16.3789
rtibia 12.5014
rfoot -8.00648 -10.8715
rtoes -6.23348
lfemur -4.68336 -0.782939 -14.2861
ltibia 19.3706
lfoot -12.1644 2.29025
ltoes -15.2105
605
root 9.22245 17.6804 -14.8493 -0.859953 -0.700047 -0.309021
lowerback 3.61463 0.505962 -1.19779
upperback -1.45078 0.715267 2.97077
thorax -3.57844 0.42039 3.69679
lowerneck -22.313 -3.44961 -10.6533
upperneck 18.01 -2.69873 6.35138
head 9.60829 -1.26602 3.5804
rclavicle 1.27968e-014 1.98785e-014
rhumerus -22.3769 27.289 -99.9813
rradius 112.326
rwrist -22.3487
rhand -35.7151 41.0944
rfingers 7.12502
rthumb -8.83484 11.2993
lclavicle 1.27968e-014 1.98785e-014
lhumerus -11.4185 -27.6097 97.5404
lradius 103.746
lwrist 11.3152
lhand -27.8708 43.1185
lfingers 7.12502
lthumb -1.26116 73.0945
rfemur -0.471362 -0.607142 15.5367
rtibia 12.6286
rfoot -8.12834 -10.4752
rtoes -6.7097
lfemur -4.31943 -0.91085 -15.113
ltibia 19.1049
lfoot -12.1488 2.46268
ltoes -14.9521
606
root 9.22909 17.6894 -14.8457 -0.730469 -0.868742 -0.602032
lowerback 3.5725 0.476263 -0.908502
upperback -1.5409 0.694453 3.04988
thorax -3.64377 0.405994 3.61723
lowerneck -22.2878 -3.30463 -10.5628
upperneck 18.0343 -2.50053 6.21666
head 9.59051 -1.18407 3.54717
rclavicle 2.11706e-014 7.15625e-015
rhumerus -22.7633 29.6333 -101.319
rradius 112.179
rwrist -22.5032
rhand -34.3449 41.2776
rfingers 7.12502
rthumb -7.5125 11.431
lclavicle 2.11706e-014 7.15625e-015
lhumerus -11.2994 -29.4205 98.2542
lradius 102.902
lwrist 10.9365
lhand -27.7934 42.7367
lfingers 7.12502
lthumb -1.18637 72.7132
rfemur -0.71595 -0.467613 15.8523
rtibia 12.7819
rfoot -8.19737 -10.5027
rtoes -6.37079
lfemur -4.39554 -0.940709 -14.7918
ltibia 18.9481
lfoot -12.0556 2.53916
ltoes -14.1447
607
root 9.23655 17.6928 -14.8428 -0.679281 -1.11656 -0.936814
lowerback 3.72868 0.528973 -0.529154
upperback -1.66397 0.791241 3.11833
thorax -3.86209 0.449313 3.46704
lowerneck -22.2611 -3.22924 -10.28
upperneck 18.1621 -2.41125 5.84953
head 9.6142 -1.16787 3.38483
rclavicle -9.19379e-015 -3.18055e-014
rhumerus -23.1426 31.5761 -102.539
rradius 111.659
rwrist -22.3363
rhand -32.2671 44.1123
rfingers 7.12502
rthumb -5.50664 14.2038
lclavicle -9.19379e-015 -3.18055e-014
lhumerus -11.0265 -31.9817 98.7025
lradius 102.145
lwrist 10.7525
lhand -27.5649 43.0024
lfingers 7.12502
lthumb -0.965667 72.9799
rfemur -0.76853 -0.134055 16.2241
rtibia 12.657
rfoot -8.03453 -10.6097
rtoes -6.31414
lfemur -4.4601 -0.936032 -14.4173
ltibia 19.0849
lfoot -12.2435 2.6464
ltoes -12.7454
